HIERARCHY
ROOT root
{
	OFFSET	0	13.1	24.9
	CHANNELS 6  Xposition Yposition Zposition Xrotation Yrotation Zrotation
	JOINT spine_1
	{
		OFFSET	0	9.99999	0
		CHANNELS 3  Xrotation Yrotation Zrotation
		JOINT spine_2
		{
			OFFSET	0	112	-10
			CHANNELS 3  Xrotation Yrotation Zrotation
			JOINT spine_3
			{
				OFFSET	0	206.5	19.3
				CHANNELS 3  Xrotation Yrotation Zrotation
				JOINT spine_4
				{
					OFFSET	0	110.4	14.6
					CHANNELS 3  Xrotation Yrotation Zrotation
					JOINT neck_1
					{
						OFFSET	0	71.8	-50.3
						CHANNELS 3  Xrotation Yrotation Zrotation
						JOINT neck_2
						{
							OFFSET	0	86.2	-25.8
							CHANNELS 3  Xrotation Yrotation Zrotation
							JOINT head_ee
							{
								OFFSET	0	179.8	-8.7
								CHANNELS 3  Xrotation Yrotation Zrotation
								End Site
								{
									OFFSET	1	0	0
								}
							}
						}
					}
					JOINT left_clavicle
					{
						OFFSET	-43.2	22.4	-70.8
						CHANNELS 3  Xrotation Yrotation Zrotation
						JOINT left_shoulder
						{
							OFFSET	-93.9	-5.79999	48.7
							CHANNELS 3  Xrotation Yrotation Zrotation
							JOINT left_elbow
							{
								OFFSET	-291.4	-30.8	15.2
								CHANNELS 3  Xrotation Yrotation Zrotation
								JOINT left_lowarm_twist
								{
									OFFSET	-110.7	-3.89999	13.6
									CHANNELS 3  Xrotation Yrotation Zrotation
									JOINT left_hand
									{
										OFFSET	-110.7	-3.89999	13.6
										CHANNELS 3  Xrotation Yrotation Zrotation
										JOINT left_ee
										{
											OFFSET	-80.8	-5.10001	12.1
											CHANNELS 3  Xrotation Yrotation Zrotation
											End Site
											{
												OFFSET	1	0	0
											}
										}
									}
								}
							}
						}
					}
					JOINT right_clavicle
					{
						OFFSET	43.2	22.4	-70.8
						CHANNELS 3  Xrotation Yrotation Zrotation
						JOINT right_shoulder
						{
							OFFSET	93.9	-5.79999	48.7
							CHANNELS 3  Xrotation Yrotation Zrotation
							JOINT right_elbow
							{
								OFFSET	291.4	-30.8	15.2
								CHANNELS 3  Xrotation Yrotation Zrotation
								JOINT right_lowarm_twist
								{
									OFFSET	110.7	-3.89999	13.6
									CHANNELS 3  Xrotation Yrotation Zrotation
									JOINT right_hand
									{
										OFFSET	110.7	-3.89999	13.6
										CHANNELS 3  Xrotation Yrotation Zrotation
										JOINT right_ee
										{
											OFFSET	80.8	-5.10001	12.1
											CHANNELS 3  Xrotation Yrotation Zrotation
											End Site
											{
												OFFSET	1	0	0
											}
										}
									}
								}
							}
						}
					}
				}
			}
		}
	}
	JOINT left_hip
	{
		OFFSET	-82.8	-127.5	0.300001
		CHANNELS 3  Xrotation Yrotation Zrotation
		JOINT left_knee
		{
			OFFSET	-28.2	-396.7	2.2
			CHANNELS 3  Xrotation Yrotation Zrotation
			JOINT left_ankle
			{
				OFFSET	-11.7	-411.3	35.4
				CHANNELS 3  Xrotation Yrotation Zrotation
				JOINT left_toes
				{
					OFFSET	0	-60	-88.6
					CHANNELS 3  Xrotation Yrotation Zrotation
					JOINT left_foot_ee
					{
						OFFSET	-22.5	-16.5	-42.2
						CHANNELS 3  Xrotation Yrotation Zrotation
						End Site
						{
							OFFSET	1	0	0
						}
					}
				}
			}
		}
	}
	JOINT right_hip
	{
		OFFSET	82.8	-127.5	0.300001
		CHANNELS 3  Xrotation Yrotation Zrotation
		JOINT right_knee
		{
			OFFSET	28.2	-396.7	2.2
			CHANNELS 3  Xrotation Yrotation Zrotation
			JOINT right_ankle
			{
				OFFSET	11.7	-411.3	35.4
				CHANNELS 3  Xrotation Yrotation Zrotation
				JOINT right_toes
				{
					OFFSET	0	-60	-88.6
					CHANNELS 3  Xrotation Yrotation Zrotation
					JOINT right_foot_ee
					{
						OFFSET	22.5	-16.5	-42.2
						CHANNELS 3  Xrotation Yrotation Zrotation
						End Site
						{
							OFFSET	1	0	0
						}
					}
				}
			}
		}
	}
}
MOTION
Frames: 14
Frame Time: 0.02
1161.42083512 731.573 -1859.78181118 -19.4560469138 14.0775798119 1.92240867785 8.27397 0.25949 1.34195 8.27496 0.173581 1.35574 8.27728 0.0820613 1.36434 8.27481 0.296485 1.33427 -15.8035 9.43871 -1.31079 -16.1518 18.8403 2.1021 -0.0 0.0 -0.0 -6.10467 22.564 -5.9714 -2.88355 5.16743 81.1538 0.222641 -6.29386 0.0122407 78.4561 -3.66172 -8.52035 -1.55567 2.39684 -9.35005 -0.0 0.0 -0.0 13.2531 25.4277 -26.3297 -8.37457 -10.5825 -70.7483 0.978427 25.8582 -0.224618 -76.0579 7.31997 -5.31543 4.71754 7.65124 -29.914 0.0 0.0 0.0 48.7058 7.87166 -4.72849 -67.9934 -3.12207 9.34376 -9.27835 -23.2291 1.62803 -34.6658 0.0 0.0 -0.0 0.0 -0.0 25.7804 0.697804 1.6908 -10.2855 -0.284943 -1.55066 29.4034 1.59567 3.85942 17.9995 -0.0 -0.0 0.0 0.0 0.0 
1169.29847011 731.573 -1863.99274704 -19.3627235649 12.9766566424 1.52344986491 8.27397 0.25949 1.34195 8.27496 0.173581 1.35574 8.27728 0.0820613 1.36434 8.27481 0.296485 1.33427 -15.8035 9.43871 -1.31079 -16.1518 18.8403 2.1021 -0.0 0.0 -0.0 -6.10467 22.564 -5.9714 -2.88355 5.16743 81.1538 0.222641 -6.29386 0.0122407 78.4561 -3.66172 -8.52035 -1.55567 2.39684 -9.35005 -0.0 0.0 -0.0 13.2531 25.4277 -26.3297 -8.37457 -10.5825 -70.7483 0.978427 25.8582 -0.224618 -76.0579 7.31997 -5.31543 4.71754 7.65124 -29.914 0.0 0.0 0.0 48.7058 7.87166 -4.72849 -67.9934 -3.12207 9.34376 -9.27835 -23.2291 1.62803 -34.6658 0.0 0.0 -0.0 0.0 -0.0 25.7804 0.697804 1.6908 -10.2855 -0.284943 -1.55066 29.4034 1.59567 3.85942 17.9995 -0.0 -0.0 0.0 0.0 0.0 
1174.16185517 716.454 -1879.9641098 -18.7787682964 13.8993163556 1.67723218716 8.15701 0.112511 1.13164 8.15772 0.0402778 1.13651 8.1573 -0.0386133 1.13657 8.15552 0.141359 1.1284 -15.4105 8.57924 -0.69526 -15.6747 16.8297 2.29981 -0.0 0.0 -0.0 -5.25763 22.7117 -4.7216 -3.78012 5.69717 80.677 0.268322 -7.5715 0.0177549 77.8735 -3.59563 -8.48538 -2.17232 3.35899 -13.0632 -0.0 0.0 -0.0 12.9552 25.0382 -25.6832 -10.8984 -9.04497 -68.6145 1.31788 33.1364 -0.392097 -72.9969 6.92889 -5.31908 4.03262 12.2259 -22.5102 0.0 0.0 0.0 49.0457 4.13439 -2.73553 -59.3798 -2.13339 8.45676 -21.5151 -23.2118 3.81127 -38.291 0.0 0.0 -0.0 0.0 -0.0 24.5262 -3.40514 2.26479 -12.8638 -0.312398 -1.94529 36.2642 3.2676 4.57163 13.7313 -0.0 -0.0 0.0 0.0 0.0 
1129.65043765 720.769 -1915.49237693 -18.6631346434 19.7105784138 3.83955482527 7.75274 -0.0487042 0.781324 7.75307 -0.0983216 0.776641 7.75123 -0.157379 0.766858 7.75041 -0.034297 0.782088 -14.4078 7.51158 0.862141 -14.5601 13.8265 3.25397 -0.0 0.0 -0.0 -3.3456 21.7798 -2.22172 -4.10435 8.76212 80.6583 0.332702 -9.35902 0.0272333 76.8781 -3.48354 -8.42408 -3.133 2.96983 -19.9025 -0.0 0.0 -0.0 12.4973 24.3758 -24.6969 -16.6431 -6.42581 -64.4164 2.24175 47.9905 -0.997972 -66.834 6.14281 -5.26262 1.15811 19.68 0.672287 0.0 0.0 0.0 49.8027 -1.32434 0.203248 -48.1539 -1.06522 7.09952 -22.1687 -18.3286 3.7423 -40.354 0.0 0.0 -0.0 0.0 -0.0 22.3243 -1.69201 3.17383 -17.0371 -0.319145 -2.58541 39.8493 2.23172 4.88308 12.0918 -0.0 -0.0 0.0 0.0 0.0 
1116.01254329 716.004 -1929.42731005 -18.8330863937 21.2056865886 4.54766126838 7.48386 0.110112 0.679121 7.48412 0.0666752 0.684751 7.48451 0.0109679 0.687902 7.48388 0.119469 0.677538 -13.5533 7.29992 2.08693 -13.6536 12.6227 4.24001 -0.0 0.0 -0.0 -3.08834 22.5092 -1.70836 -5.91661 9.59112 80.4926 0.409691 -11.4725 0.0411546 76.402 -3.43031 -8.39408 -3.35247 3.01626 -21.436 -0.0 0.0 -0.0 13.1025 25.3875 -25.9851 -17.2213 -5.3332 -62.1341 2.42397 50.2047 -1.13573 -63.8936 5.77057 -5.2058 -1.09347 21.6148 16.554 0.0 0.0 0.0 51.1451 -3.23536 0.537731 -41.0476 -0.534759 6.1443 -22.0635 -14.4638 3.6088 -40.2061 0.0 0.0 -0.0 0.0 -0.0 19.1368 -0.0242894 1.99859 -14.712 -0.321138 -2.2287 39.9683 4.06232 4.91548 11.7449 -0.0 -0.0 0.0 0.0 0.0 
1108.06337676 716.004 -1924.85376485 -18.9628672067 22.1591586619 4.89891816542 7.48386 0.110112 0.679121 7.48412 0.0666752 0.684751 7.48451 0.0109679 0.687902 7.48388 0.119469 0.677538 -13.5533 7.29992 2.08693 -13.6536 12.6227 4.24001 -0.0 0.0 -0.0 -3.08834 22.5092 -1.70836 -5.91661 9.59112 80.4926 0.409691 -11.4725 0.0411546 76.402 -3.43031 -8.39408 -3.35247 3.01626 -21.436 -0.0 0.0 -0.0 13.1025 25.3875 -25.9851 -17.2213 -5.3332 -62.1341 2.42397 50.2047 -1.13573 -63.8936 5.77057 -5.2058 -1.09347 21.6148 16.554 0.0 0.0 0.0 51.1451 -3.23536 0.537731 -41.0476 -0.534759 6.1443 -22.0635 -14.4638 3.6088 -40.2061 0.0 0.0 -0.0 0.0 -0.0 19.1368 -0.0242894 1.99859 -14.712 -0.321138 -2.2287 39.9683 4.06232 4.91548 11.7449 -0.0 -0.0 0.0 0.0 0.0 
1099.10508402 721.307 -1922.99996235 -19.9571262326 24.8906056344 6.48436260995 7.16123 0.165307 0.67803 7.16148 0.121828 0.687174 7.16257 0.0618417 0.695144 7.16193 0.170848 0.676654 -12.6291 7.60527 3.40849 -12.6882 12.298 5.4852 -0.0 0.0 -0.0 -2.47201 20.1191 -1.27858 -7.10086 12.5557 79.595 0.454327 -12.6839 0.050495 76.505 -3.44181 -8.40061 -3.48184 3.37489 -22.1691 -0.0 0.0 -0.0 13.5602 26.3262 -26.9363 -14.1709 -4.75071 -59.3792 2.25674 48.1803 -1.00913 -61.4139 5.45909 -5.14302 -3.10413 22.7043 31.3139 0.0 0.0 0.0 51.4349 -5.03035 -0.097916 -31.4467 -0.0140606 4.76584 -22.0875 -10.4719 3.51663 -40.1708 0.0 0.0 -0.0 0.0 -0.0 18.222 1.23612 0.788652 -10.5767 -0.288933 -1.59517 39.1033 6.08299 4.87068 9.44378 -0.0 -0.0 0.0 0.0 0.0 
1065.88441528 718.139 -1930.44116679 -21.3407289965 28.6377918354 9.06731251685 6.90945 0.159932 0.394989 6.90953 0.134474 0.404365 6.91036 0.0971127 0.414926 6.91016 0.161423 0.394382 -10.3082 7.82932 3.04419 -10.3419 12.7207 4.95199 -0.0 0.0 -0.0 -1.52482 14.4596 -0.762291 -7.69973 18.847 79.5911 0.462008 -12.8912 0.0521952 76.5724 -3.44933 -8.40487 -3.7594 4.40852 -23.5984 -0.0 0.0 -0.0 13.907 25.9427 -27.7923 -10.9906 -3.72743 -57.5091 2.04258 45.3318 -0.853078 -60.5166 5.34707 -5.11697 -4.41028 25.0322 42.4807 0.0 0.0 0.0 51.2086 -8.37678 -0.327505 -24.6751 0.210927 3.75156 -17.944 -3.84085 2.76132 -40.1471 0.0 0.0 -0.0 0.0 -0.0 16.5188 2.14324 0.367097 -8.29876 -0.25169 -1.24763 39.503 8.76269 4.95619 8.31728 -0.0 -0.0 0.0 0.0 0.0 
1038.60374983 713.582 -1939.71616854 -22.3638125334 30.7775065568 10.7020077159 6.92263 0.141535 0.531194 6.92278 0.107448 0.539123 6.92357 0.0580599 0.546651 6.92318 0.143663 0.530622 -8.83509 7.76576 3.14566 -8.84172 12.3723 4.88604 -0.0 0.0 -0.0 1.30671 14.7393 3.83621 -10.588 21.5889 76.6495 0.491136 -13.6743 0.0588877 76.0957 -3.39619 -8.37454 -3.84619 2.48677 -25.303 -0.0 0.0 -0.0 12.3764 22.6669 -24.5844 -9.92353 0.383105 -59.2649 2.07262 45.7497 -0.874515 -58.3826 5.08231 -5.04798 -5.26278 26.3015 50.4539 0.0 0.0 0.0 50.6754 -11.0833 -0.358843 -17.0446 0.319115 2.58656 -14.0357 4.44236 2.108 -40.2003 0.0 0.0 -0.0 0.0 -0.0 14.7297 2.75494 0.364575 -6.86286 -0.221123 -1.02941 39.2961 9.83933 4.96163 7.30195 -0.0 -0.0 0.0 0.0 0.0 
1031.58066758 713.582 -1934.59318818 -22.5652401996 31.5824956047 11.0910575027 6.92263 0.141535 0.531194 6.92278 0.107448 0.539123 6.92357 0.0580599 0.546651 6.92318 0.143663 0.530622 -8.83509 7.76576 3.14566 -8.84172 12.3723 4.88604 -0.0 0.0 -0.0 1.30671 14.7393 3.83621 -10.588 21.5889 76.6495 0.491136 -13.6743 0.0588877 76.0957 -3.39619 -8.37454 -3.84619 2.48677 -25.303 -0.0 0.0 -0.0 12.3764 22.6669 -24.5844 -9.92353 0.383105 -59.2649 2.07262 45.7497 -0.874515 -58.3826 5.08231 -5.04798 -5.26278 26.3015 50.4539 0.0 0.0 0.0 50.6754 -11.0833 -0.358843 -17.0446 0.319115 2.58656 -14.0357 4.44236 2.108 -40.2003 0.0 0.0 -0.0 0.0 -0.0 14.7297 2.75494 0.364575 -6.86286 -0.221123 -1.02941 39.2961 9.83933 4.96163 7.30195 -0.0 -0.0 0.0 0.0 0.0 
1003.15694799 707.166 -1939.32442562 -23.9725463443 33.8999809539 13.1135993786 7.03341 0.173371 0.614983 7.03362 0.133887 0.624768 7.03478 0.0778481 0.634193 7.03426 0.177028 0.61394 -7.99052 6.64842 2.64603 -7.98677 10.5413 4.06721 -0.0 0.0 -0.0 1.95167 17.0787 5.02405 -14.4798 21.6732 75.0588 0.635661 -17.4787 0.0977176 76.398 -3.42986 -8.39382 -4.16187 3.41129 -27.1222 -0.0 0.0 -0.0 11.3757 20.3899 -22.4792 -8.58992 3.52491 -58.9192 2.0757 45.7923 -0.876725 -54.8949 4.65556 -4.91411 -5.89584 25.8279 56.7047 0.0 0.0 0.0 49.1633 -14.513 -0.489179 -6.50463 0.212646 0.975086 -9.40468 14.4964 1.40819 -40.2189 0.0 0.0 -0.0 0.0 -0.0 13.1522 2.85043 0.0730603 -5.38158 -0.183867 -0.805144 39.2405 10.5928 4.9744 6.72022 -0.0 -0.0 0.0 0.0 0.0 
998.263340408 707.166 -1935.39228818 -24.1404776418 34.4539889512 13.4125379531 7.03341 0.173371 0.614983 7.03362 0.133887 0.624768 7.03478 0.0778481 0.634193 7.03426 0.177028 0.61394 -7.99052 6.64842 2.64603 -7.98677 10.5413 4.06721 -0.0 0.0 -0.0 1.95167 17.0787 5.02405 -14.4798 21.6732 75.0588 0.635661 -17.4787 0.0977176 76.398 -3.42986 -8.39382 -4.16187 3.41129 -27.1222 -0.0 0.0 -0.0 11.3757 20.3899 -22.4792 -8.58992 3.52491 -58.9192 2.0757 45.7923 -0.876725 -54.8949 4.65556 -4.91411 -5.89584 25.8279 56.7047 0.0 0.0 0.0 49.1633 -14.513 -0.489179 -6.50463 0.212646 0.975086 -9.40468 14.4964 1.40819 -40.2189 0.0 0.0 -0.0 0.0 -0.0 13.1522 2.85043 0.0730603 -5.38158 -0.183867 -0.805144 39.2405 10.5928 4.9744 6.72022 -0.0 -0.0 0.0 0.0 0.0 
992.702449814 707.166 -1930.818988 -24.3388181066 35.0884763789 13.7603138482 7.03341 0.173371 0.614983 7.03362 0.133887 0.624768 7.03478 0.0778481 0.634193 7.03426 0.177028 0.61394 -7.99052 6.64842 2.64603 -7.98677 10.5413 4.06721 -0.0 0.0 -0.0 1.95167 17.0787 5.02405 -14.4798 21.6732 75.0588 0.635661 -17.4787 0.0977176 76.398 -3.42986 -8.39382 -4.16187 3.41129 -27.1222 -0.0 0.0 -0.0 11.3757 20.3899 -22.4792 -8.58992 3.52491 -58.9192 2.0757 45.7923 -0.876725 -54.8949 4.65556 -4.91411 -5.89584 25.8279 56.7047 0.0 0.0 0.0 49.1633 -14.513 -0.489179 -6.50463 0.212646 0.975086 -9.40468 14.4964 1.40819 -40.2189 0.0 0.0 -0.0 0.0 -0.0 13.1522 2.85043 0.0730603 -5.38158 -0.183867 -0.805144 39.2405 10.5928 4.9744 6.72022 -0.0 -0.0 0.0 0.0 0.0 
964.748587729 707.97 -1932.90088258 -26.0560824152 37.429478879 16.0288091219 7.02329 0.166412 0.667781 7.02353 0.123583 0.677017 7.02463 0.0628206 0.68533 7.02402 0.170265 0.666809 -7.43696 4.99325 2.07574 -7.43061 7.81065 3.10957 -0.0 0.0 -0.0 1.33755 15.7429 3.96659 -19.065 23.4178 74.5827 0.711091 -19.405 0.121582 78.4266 -3.65837 -8.5186 -4.26777 6.2766 -26.2185 -0.0 0.0 -0.0 11.0078 18.6309 -21.764 -6.83245 5.7854 -58.5816 1.89906 43.2465 -0.752839 -51.5252 4.25156 -4.76028 -6.21901 25.05 60.1362 0.0 0.0 0.0 47.6891 -16.3851 -1.43862 1.11341 -0.0474478 -0.164266 -0.338311 24.614 0.0515937 -40.1427 0.0 0.0 -0.0 0.0 -0.0 12.5488 1.28578 -0.381298 -4.68331 -0.164296 -0.699771 38.4539 11.2545 4.92027 6.05141 -0.0 -0.0 0.0 0.0 0.0 
